<?xml version="1.0" encoding="utf-8"?>
<!-- Generator: Adobe Illustrator 23.0.0, SVG Export Plug-In . SVG Version: 6.00 Build 0)  -->
<svg version="1.1" xmlns="http://www.w3.org/2000/svg" xmlns:xlink="http://www.w3.org/1999/xlink" x="0px" y="0px"
	 viewBox="0 0 100 99.5" style="enable-background:new 0 0 100 99.5;" xml:space="preserve">
<g id="Layer_2">
</g>
<g id="Layer_1">
	<path d="M50,4.8C25.3,4.8,5.1,25,5.1,49.8S25.3,94.7,50,94.7s44.9-20.2,44.9-44.9S74.8,4.8,50,4.8z M72.4,83.5
		c-34.4-0.7-48.1-27-48.2-27.2c-0.3-0.6-1-0.8-1.5-0.5s-0.8,0.9-0.5,1.5c0.1,0.3,3.7,7.3,11.9,14.4c6.9,5.9,18.3,12.8,34.8,13.9
		c-2.8,1.5-5.7,2.6-8.8,3.4c-7.2,1.1-16.9,1.1-24-5.1c-0.5-0.4-1.2-0.4-1.6,0.1c-0.4,0.5-0.4,1.2,0.1,1.6c1.6,1.4,3.3,2.5,5.1,3.4
		c-15.2-4-27-16.7-29.6-32.5c2.1,5.1,5.6,10.7,11.4,15.5c0.2,0.2,0.5,0.3,0.7,0.3c0.3,0,0.6-0.1,0.9-0.4c0.4-0.5,0.3-1.2-0.2-1.6
		C13.9,63,10.7,53,9.6,47.2c0.5-7.8,3.2-15,7.5-21c3.6,5.6,13.3,19.2,28,26.8c0.4,0.2,10.6,4.8,17.3,4.9c0.1,0,7.2,0.2,12.4,6.2
		c0.2,0.2,0.5,0.4,0.8,0.4s0.5-0.1,0.7-0.3c0.5-0.4,0.5-1.1,0.1-1.6c-5.9-6.7-13.7-6.9-14-6.9C56.2,55.6,46.1,51,46,51
		c-14.6-7.6-24.5-21.9-27.5-26.7c5.8-7.1,13.8-12.2,23.1-14.1c3.1,3.9,12.1,14,24.1,18.1c0.1,0,0.2,0.1,0.4,0.1c0.5,0,0.9-0.3,1-0.7
		c0.2-0.6-0.1-1.2-0.7-1.4C56.1,22.6,47.8,14,44.3,9.7c1.9-0.3,3.8-0.5,5.8-0.5c22,0,39.9,17.6,40.4,39.4
		c-6.7-0.1-27.8-1.7-45.9-18.1c-0.5-0.4-1.2-0.4-1.6,0.1c-0.4,0.5-0.4,1.2,0.1,1.6c18.7,16.9,40.4,18.6,47.4,18.7
		C90.1,64.5,83,76.4,72.4,83.5z"/>
	<path d="M71.6,73c-1.1,3.4-7.1,4.5-13.3,2.4s-10.4-6.5-9.2-9.9c1.1-3.4,7.1-4.5,13.3-2.4C68.6,65.1,72.7,69.6,71.6,73z"/>
</g>
</svg>
