<svg id="Layer_1" data-name="Layer 1" xmlns="http://www.w3.org/2000/svg" viewBox="0 0 4000 4000"><defs><style>.cls-1{opacity:0.05;}.cls-2{fill:#08b3e5;}.cls-3{fill:#29f499;}.cls-4{fill:#21e8a7;}.cls-5{fill:#16c9ca;}.cls-6{fill:#17d3be;}.cls-7{opacity:0.1;}.cls-8{fill:#0bbcd9;}</style></defs><title>Personal Logo_PersonalLogoIsometric_Both</title><polygon class="cls-1" points="2075 1826.112 575 2692.128 1025 2952.621 2375 1999.318 2075 1826.112"/><polygon class="cls-1" points="2682.278 2171.832 2013.215 2543.34 2075 2864.652 2975 2345.037 2682.278 2171.832"/><polygon class="cls-2" points="3125 2085.23 2825 1912.024 2825 2258.435 3125 2431.64 3125 2085.23"/><polygon class="cls-2" points="3425 1220.585 3125 1393.79 3125 2431.64 3425 2258.435 3425 1220.585"/><polygon class="cls-2" points="3425 1220.585 3125 1047.379 2825 1220.585 3125 1393.79 3425 1220.585"/><polygon class="cls-3" points="1325 2779.415 1025 2606.21 1025 2952.621 1325 3125.826 1325 2779.415"/><polygon class="cls-3" points="1625 2606.21 1324.919 2433.005 1025 2606.21 1325 2779.415 1625 2606.21"/><polygon class="cls-3" points="1625 2606.21 1325 2779.415 1325 3125.826 1625 2952.621 1625 2606.21"/><polygon class="cls-4" points="1925 1740.2 1625 1913.405 1625 2951.255 1925 2778.05 1925 1740.2"/><polygon class="cls-4" points="1625 1913.405 1324.919 1739.51 1324.919 2433.005 1624.919 2606.21 1625 1913.405"/><polygon class="cls-5" points="2825 1566.995 2524.948 1740.215 2524.948 2431.655 2825 2258.435 2825 1566.995"/><polygon class="cls-5" points="2825 1566.995 2525 1393.79 2225 1566.995 2525 1740.2 2825 1566.995"/><polygon class="cls-6" points="2225 1913.405 1925 1740.2 1925 2778.05 2225 2951.255 2225 1913.405"/><polygon class="cls-6" points="2525 1740.2 2225 1566.995 1925 1740.2 2225 1913.405 2525 1740.2"/><polygon class="cls-6" points="2525.035 1740.147 2225 1913.405 2225 2951.255 2525.035 2777.997 2525.035 1740.147"/><polygon class="cls-3" points="1925 1393.79 1625 1566.995 1625 1913.405 1925 1740.2 1925 1393.79"/><polygon class="cls-3" points="2225 1220.585 1925 1393.79 1925 1740.2 2225 1566.995 2225 1220.585"/><polygon class="cls-3" points="2525 1047.379 2225 1220.585 2225 1566.995 2525 1393.79 2525 1047.379"/><polygon class="cls-3" points="1325 1740.2 1025 1913.405 1025 2259.815 1325 2086.61 1325 1740.2"/><polygon class="cls-3" points="1625 1566.995 1325 1740.2 1325 2086.61 1625 1913.405 1625 1566.995"/><polygon class="cls-3" points="1025 1913.395 725 1740.19 725 2086.6 1025 2259.805 1025 1913.395"/><polygon class="cls-3" points="1325 1740.2 1025 1566.995 725 1740.2 1025 1913.405 1325 1740.2"/><polygon class="cls-3" points="1625 1566.995 1325 1393.79 1025 1566.995 1325 1740.2 1625 1566.995"/><polygon class="cls-3" points="1925 1393.79 1625 1220.585 1325 1393.79 1625 1566.995 1925 1393.79"/><polygon class="cls-3" points="2225 1220.585 1925 1047.379 1625 1220.585 1925 1393.79 2225 1220.585"/><polygon class="cls-3" points="2525 1047.379 2225 874.174 1925 1047.379 2225 1220.585 2525 1047.379"/><polygon class="cls-7" points="2225 1913.405 2225 2951.255 1925 2778.05 1925 1740.2 2225 1913.405"/><polygon class="cls-1" points="2225 874.174 725 1740.19 1025 1913.405 2525 1047.379 2225 874.174"/><polygon class="cls-1" points="1324.919 2433.005 1025 2606.21 1325 2779.415 1625 2606.21 1324.919 2433.005"/><polygon class="cls-7" points="1625 1913.405 1625 2606.21 1324.919 2433.005 1325 2086.61 1625 1913.405"/><polygon class="cls-7" points="1325 2779.415 1325 3125.826 1025 2952.621 1025 2606.21 1325 2779.415"/><polygon class="cls-7" points="1025 1913.405 1025 2259.815 725 2086.6 725 1740.19 1025 1913.405"/><polygon class="cls-7" points="3125 2085.23 3125 2431.64 2825 2258.435 2825 1912.024 3125 2085.23"/><polygon class="cls-8" points="3125 1393.79 2825 1566.995 2825 2258.435 3125 2085.244 3125 1393.79"/><polygon class="cls-8" points="3125 1393.79 2825 1220.585 2525 1393.79 2825 1566.995 3125 1393.79"/><polygon class="cls-1" points="3125 1047.379 1925 1740.2 2225 1913.405 3425 1220.585 3125 1047.379"/></svg>